HIERARCHY
ROOT pelvis
{
  OFFSET 7.20071 88.6142 -107.945
  CHANNELS 6 Xposition Yposition Zposition Zrotation Xrotation Yrotation
  JOINT lfemur
  {
    OFFSET 0 11.9945 0
    CHANNELS 3 Zrotation Xrotation Yrotation
    JOINT ltibia
    {
      OFFSET 0 0 -41.4872
      CHANNELS 3 Zrotation Xrotation Yrotation
      JOINT lfoot
      {
        OFFSET 0 0 -39.7538
        CHANNELS 3 Zrotation Xrotation Yrotation
        JOINT ltoes
        {
          OFFSET 15.4382 0 0
          CHANNELS 3 Zrotation Xrotation Yrotation
          End Site
          {
            OFFSET 0 0 0
          }
        }
      }
    }
  }
  JOINT rfemur
  {
    OFFSET 0 -11.9945 0
    CHANNELS 3 Zrotation Xrotation Yrotation
    JOINT rtibia
    {
      OFFSET 0 0 -41.4872
      CHANNELS 3 Zrotation Xrotation Yrotation
      JOINT rfoot
      {
        OFFSET 0 0 -39.7538
        CHANNELS 3 Zrotation Xrotation Yrotation
        JOINT rtoes
        {
          OFFSET 15.4382 0 0
          CHANNELS 3 Zrotation Xrotation Yrotation
          End Site
          {
            OFFSET 0 0 0
          }
        }
      }
    }
  }
  JOINT thorax
  {
    OFFSET 2.86159 -2.14819 9.3013
    CHANNELS 3 Zrotation Xrotation Yrotation
    JOINT head
    {
      OFFSET 2.32635 -2.20353 47.7651
      CHANNELS 3 Zrotation Xrotation Yrotation
      End Site
      {
        OFFSET 0 0 0
      }
    }
    JOINT lclavicle
    {
      OFFSET 0 0 42.6193
      CHANNELS 3 Zrotation Xrotation Yrotation
      JOINT lhumerus
      {
        OFFSET 0 19.157 -2.10407
        CHANNELS 3 Zrotation Xrotation Yrotation
        JOINT lradius
        {
          OFFSET 0 0 -26.2788
          CHANNELS 3 Zrotation Xrotation Yrotation
          JOINT lhand
          {
            OFFSET 0 0 -26.6372
            CHANNELS 3 Zrotation Xrotation Yrotation
            End Site
            {
              OFFSET 0 0 0
            }
          }
        }
      }
    }
    JOINT rclavicle
    {
      OFFSET 0 0 42.6193
      CHANNELS 3 Zrotation Xrotation Yrotation
      JOINT rhumerus
      {
        OFFSET 0 -19.157 -2.10407
        CHANNELS 3 Zrotation Xrotation Yrotation
        JOINT rradius
        {
          OFFSET 0 0 -26.2788
          CHANNELS 3 Zrotation Xrotation Yrotation
          JOINT rhand
          {
            OFFSET 0 0 -26.6372
            CHANNELS 3 Zrotation Xrotation Yrotation
            End Site
            {
              OFFSET 0 0 0
            }
          }
        }
      }
    }
  }
}
MOTION
Frames:	8
Frame Time:	0.0333333
7.30531 88.6175 -107.936 -92.3297 3.4595 -80.8857 0.278435 0.220911 -9.29048 2.03787e-015 -9.41121e-016 2.88873 -0.307733 -0.0770308 13.9971 -6.0908e-015 8.34896e-015 -31.2983 2.73512 5.55021 -4.40603 9.01742e-016 -2.68359e-015 2.26162 -1.87869 -0.478386 14.2783 -4.92476e-015 6.36111e-015 -32.1343 -9.53258 2.08462 -16.5932 16.3591 1.8935 4.02796 9.57752 1.20344 -0.203814 83.6837 -5.84395 -22.1753 -110.998 -36.8041 -12.9542 0.00224568 25.564 -18.258 7.88103 7.11048 -0.981643 10.304 -7.5494 13.835 24.9357 -12.4486 -24.8744 0.000202322 -6.57298 158.868 
7.71691 88.621 -107.901 -92.3445 3.50283 -80.7088 0.58918 -0.0995316 -9.25499 7.84664e-016 2.54305e-016 2.53352 -0.575462 -0.145241 14.139 -6.67751e-015 8.15017e-015 -31.2902 3.26624 5.24051 -4.64598 7.93239e-016 6.21202e-017 2.38852 -2.34812 -0.597965 14.2778 -4.81818e-015 7.15625e-015 -33.2207 -9.71444 2.06487 -16.5576 16.3352 2.35569 4.65629 10.0503 1.2993 -0.23089 82.694 -6.01728 -21.9434 -110.517 -36.5582 -12.5721 0.00210048 25.243 -18.6108 7.83272 7.11438 -0.976075 10.6375 -7.60651 13.5867 24.124 -12.3142 -25.4731 8.91964e-006 -6.57037 159.14 
8.09835 88.602 -107.872 -92.4132 3.61234 -80.5575 0.821972 -0.313304 -9.20886 1.61476e-015 -6.02566e-016 2.21369 -0.677286 -0.171034 14.1701 -6.09196e-015 8.34896e-015 -31.284 3.552 5.02525 -4.86326 4.28372e-016 -6.95746e-016 2.50377 -2.49592 -0.635468 14.2747 -3.44884e-015 6.95746e-015 -34.133 -9.62298 1.98882 -16.5263 16.2432 2.6887 4.98626 9.30679 1.18651 -0.196137 83.8531 -5.7723 -22.2405 -111.291 -36.7254 -13.1233 0.000832961 25.3783 -18.5467 7.78739 7.19666 -0.981542 10.9318 -7.65423 13.4982 23.6589 -12.4275 -26.1631 -0.000105279 -6.50549 159.169 
8.45492 88.6057 -107.875 -92.5256 3.82028 -80.4194 1.01741 -0.478998 -9.15725 1.59782e-015 -2.04997e-016 1.86969 -0.640078 -0.162617 14.2678 -5.95352e-015 9.34288e-015 -31.2812 3.64139 4.85787 -5.17648 7.94869e-016 2.48481e-017 2.7784 -2.38636 -0.609016 14.3113 -4.81948e-015 6.95746e-015 -35.2526 -9.46556 1.91788 -16.3976 16.0661 2.7483 4.84965 8.89203 1.24503 -0.195553 84.3549 -5.58178 -22.3508 -111.196 -36.7289 -13.0602 0.000677692 25.3996 -18.7079 7.75457 7.20573 -0.978628 11.4878 -7.62633 13.3853 23.1838 -12.5557 -26.9157 -5.21361e-006 -6.43683 159.205 
8.81738 88.6156 -107.938 -92.658 4.07574 -80.2992 1.06633 -0.595184 -9.10319 1.23801e-015 -1.71452e-015 1.49983 -0.450155 -0.115764 14.4216 -5.85071e-015 8.74653e-015 -31.2805 3.67455 4.72386 -5.55098 6.40312e-016 -7.82715e-016 3.14864 -2.21493 -0.568519 14.3878 -4.54848e-015 6.55989e-015 -36.4003 -9.38446 1.9095 -16.2147 15.8717 2.57388 4.48661 9.14385 1.43273 -0.230531 83.4645 -5.47032 -22.2555 -109.985 -36.4363 -12.1892 -5.2419e-006 25.2248 -18.9306 7.82974 7.16048 -0.982152 12.1257 -7.54904 13.2532 22.6658 -12.635 -27.6457 2.65255e-005 -6.39739 159.197 
9.15186 88.6127 -107.945 -92.8268 4.25655 -80.1472 0.709613 -0.600381 -9.0474 4.10861e-016 -6.52262e-016 1.1602 -0.0531438 -0.0137851 14.4327 -5.71239e-015 9.74045e-015 -31.2773 3.88553 4.64083 -5.79898 8.43262e-016 -8.07563e-016 3.31596 -2.30798 -0.595582 14.4619 -5.81551e-015 6.16232e-015 -36.8363 -9.45752 2.01743 -16.1651 15.8206 2.38944 4.54532 9.19282 1.2853 -0.20784 82.532 -5.01956 -22.635 -109.291 -36.163 -11.6698 -6.67716e-005 25.2602 -18.2482 8.19444 7.25026 -1.04118 12.1838 -7.54152 13.2967 22.3859 -12.7674 -28.2146 2.43339e-005 -6.39486 158.791 
9.48857 88.6134 -108.057 -93.0264 4.58147 -79.9455 1.5462 -0.726492 -9.09569 4.13437e-016 -1.16165e-015 0.78079 -0.576858 -0.149602 14.5192 -6.09293e-015 8.34896e-015 -31.272 3.78647 4.63444 -6.36106 9.89511e-016 9.93923e-017 3.80094 -2.08114 -0.535866 14.4306 -3.93173e-015 5.96354e-015 -37.7231 -9.08614 1.94897 -15.9179 15.5231 2.15835 4.06972 8.8107 1.48039 -0.229082 82.7142 -4.80174 -22.7514 -109.056 -35.9391 -11.4606 -0.000538427 25.0091 -18.3938 8.00294 7.1428 -1.00162 12.7156 -7.43141 12.92 22.5092 -13.0581 -28.5992 3.38267e-005 -6.42265 158.611 
9.7844 88.6078 -108.091 -93.2071 5.04555 -79.7706 2.24092 -0.870071 -8.93688 1.59143e-015 -2.48481e-016 0.262785 -0.908034 -0.236413 14.5866 -5.26615e-015 8.94531e-015 -31.2664 3.75311 4.54317 -7.06216 4.76374e-016 -9.44227e-016 4.69032 -1.76753 -0.449769 14.2509 -4.69173e-015 5.56597e-015 -39.3095 -8.8156 2.00036 -15.8134 15.6956 2.36911 4.40814 8.93367 1.56334 -0.245897 81.7224 -4.31388 -22.9369 -107.891 -35.5824 -10.6439 0.000622115 24.4886 -18.5419 8.10495 6.99868 -0.993857 13.008 -7.22652 12.7501 22.6753 -13.2939 -28.8263 -9.01609e-005 -6.36576 158.491 
